<?xml version="1.0" encoding="UTF-8"?>
<svg width="512px" height="512px" viewBox="0 0 512 512" version="1.1" xmlns="http://www.w3.org/2000/svg" xmlns:xlink="http://www.w3.org/1999/xlink">
    <title>monkey-gooff</title>
    <g id="页面-1" stroke="none" stroke-width="1" fill="none" fill-rule="evenodd">
        <g id="gorilla" fill-rule="nonzero">
            <path d="M487.905,364.526 C503.352,331.574 512,294.8 512,256 C512,114.615 397.385,0 256,0 C114.615,0 0,114.615 0,256 C0,294.8 8.648,331.574 24.096,364.526 L487.905,364.526 Z" id="路径" fill="#FFFFFF"></path>
            <g id="编组" transform="translate(24.000000, 0.000000)">
                <path d="M91.188,469.807 L372.811,469.807 C412.068,443.894 443.774,407.466 463.904,364.526 C451.127,350.725 434.028,340.837 414.43,337.118 C403.568,335.057 393.176,331.021 383.77,325.212 L232,231.472 L80.229,325.211 C70.823,331.021 60.431,335.056 49.569,337.117 C29.971,340.836 12.872,350.724 0.095,364.525 C20.225,407.466 51.931,443.894 91.188,469.807 Z" id="路径" fill="#725057"></path>
                <path d="M232,231.472 L80.229,325.211 C70.823,331.021 60.431,335.056 49.569,337.117 C29.971,340.836 12.872,350.724 0.095,364.525 C13.174,392.425 31.145,417.572 52.895,438.875 C61.744,414.205 78.508,375.49 99.667,364.525 C131.454,348.052 231.997,231.476 232,231.472 Z" id="路径" fill="#543438"></path>
                <path d="M232,512 C284.025,512 332.416,496.471 372.812,469.807 C350.588,392.742 295.92,338.248 232,338.248 C168.08,338.248 113.412,392.742 91.188,469.807 C131.584,496.471 179.975,512 232,512 Z" id="路径" fill="#F9D778"></path>
                <path d="M91.188,469.807 C107.356,480.479 124.808,489.361 143.258,496.184 C148.436,425.645 187.327,359.423 232,338.248 C168.08,338.248 113.412,392.742 91.188,469.807 Z" id="路径" fill="#F4CB6E"></path>
                <path d="M117.746,148.142 C117.746,148.142 123.59,104.782 93.232,98.101 C62.874,91.419 45.296,182.545 92.607,216.246 L117.746,148.142 Z" id="路径" fill="#F9D778"></path>
                <path d="M346.254,148.142 C346.254,148.142 340.41,104.782 370.768,98.101 C401.126,91.419 418.704,182.545 371.393,216.246 L346.254,148.142 Z" id="路径" fill="#F9D778"></path>
                <path d="M92.607,216.245 L117.747,148.142 C117.747,148.142 123.173,107.848 96.363,98.965 C83.767,128.397 75.245,159.479 70.066,186.848 C74.74,198.354 82.056,208.729 92.607,216.245 L92.607,216.245 Z" id="路径" fill="#F4CB6E"></path>
                <path d="M367.638,98.965 C340.828,107.849 346.254,148.142 346.254,148.142 L371.393,216.245 C381.944,208.729 389.26,198.354 393.935,186.848 C388.756,159.479 380.234,128.397 367.638,98.965 L367.638,98.965 Z" id="路径" fill="#F4CB6E"></path>
                <path d="M232,0 C118.198,0 78.648,182.141 78.648,245.592 C78.648,309.043 179.1,368.248 232,368.248 C284.9,368.248 385.352,309.042 385.352,245.592 C385.352,182.141 345.802,0 232,0 Z" id="路径" fill="#7E5966"></path>
                <path d="M232,338.248 L177.389,130.406 C182.111,116.146 214,9.524 274.754,9.524 C261.841,3.438 247.622,-2.66453526e-14 232,-2.66453526e-14 C118.198,-2.66453526e-14 78.648,182.141 78.648,245.592 C78.648,309.043 179.1,368.248 232,368.248 C248.004,368.248 268.362,362.822 288.973,353.505 C253.62,346.012 232,338.248 232,338.248 Z" id="路径" fill="#725057"></path>
                <path d="M328.901383,170.195 C328.802,147.457 309.339,129.728 286.611,130.406 C271.98,130.843 259.364,135.395 249.955,140.23 C238.71,146.009 225.289,146.009 214.044,140.23 C204.635,135.395 192.019,130.843 177.388,130.406 C154.66,129.728 135.197,147.457 135.098617,170.195 C135.003,192.368 152.948,210.372 175.099,210.372 C175.178,210.372 175.257,210.372 175.337,210.371 C183.164,210.32 188.211,218.55 184.6,225.493 C172.612,248.54 168.457,276.876 173.667,295.171 C180.334,318.581 206.334,338.247 232,338.247 C257.666,338.247 283.667,318.58 290.333,295.171 C295.543,276.875 291.388,248.54 279.4,225.493 C275.788,218.549 280.836,210.32 288.663,210.371 C288.743,210.372 288.822,210.372 288.901,210.372 C311.052,210.372 328.997,192.368 328.901383,170.195 L328.901383,170.195 Z" id="路径" fill="#F9D778"></path>
                <path d="M199.153,293.713 C199.153,267.926 216,233 210.111,210.591 C204.223,188.182 162.999,170.334 177.388,130.406 C154.66,129.728 135.197,147.457 135.098617,170.195 C135.003,192.368 152.948,210.372 175.099,210.372 C175.178,210.372 175.257,210.372 175.337,210.371 C183.164,210.32 188.211,218.55 184.6,225.493 C172.612,248.54 168.457,276.876 173.667,295.171 C180.334,318.581 206.334,338.247 232,338.247 C232,338.247 199.153,319.5 199.153,293.713 Z" id="路径" fill="#F4CB6E"></path>
                <circle id="椭圆形" fill="#543438" cx="179.667" cy="170.333" r="15"></circle>
                <circle id="椭圆形" fill="#543438" cx="284.333" cy="170.333" r="15"></circle>
                <circle id="椭圆形" fill="#FFFFFF" cx="187.167" cy="162.833" r="7.5"></circle>
                <circle id="椭圆形" fill="#FFFFFF" cx="291.833" cy="162.833" r="7.5"></circle>
                <path d="M265.573,283.131 C258.771,275.326 249.537,270.202 239.5,268.484 L239.5,223.971 L224.5,223.971 L224.5,268.484 C214.463,270.202 205.229,275.325 198.427,283.13 C195.706,286.253 196.031,290.99 199.154,293.712 C200.575,294.95 202.331,295.558 204.079,295.558 C206.171,295.558 208.253,294.687 209.736,292.986 C215.355,286.538 223.47,282.84 232.001,282.84 C240.531,282.84 248.646,286.538 254.266,292.986 C256.989,296.11 261.726,296.434 264.848,293.713 C267.969,290.992 268.295,286.254 265.573,283.131 L265.573,283.131 Z" id="路径" fill="#F2BC51"></path>
                <path d="M232,231.472 C223.332,231.472 215.089,227.718 209.385,221.172 C206.664,218.049 206.989,213.312 210.112,210.59 C213.234,207.869 217.972,208.194 220.694,211.317 C223.548,214.592 227.67,216.471 232.001,216.471 C236.332,216.471 240.453,214.592 243.308,211.317 C246.031,208.193 250.765,207.869 253.89,210.59 C257.012,213.311 257.338,218.049 254.617,221.172 C248.911,227.718 240.668,231.472 232,231.472 L232,231.472 Z" id="路径" fill="#F2BC51"></path>
                <path d="M232,512 C234.51,512 237.008,511.953 239.5,511.881 L239.5,415.748 C239.5,411.606 236.142,408.248 232,408.248 C227.858,408.248 224.5,411.606 224.5,415.748 L224.5,511.881 C226.992,511.953 229.49,512 232,512 Z" id="路径" fill="#F2BC51"></path>
            </g>
        </g>
        <path d="M178.069872,35.9727972 C211.173977,41.1475188 237.150963,43.7348796 256.000831,43.7348796 C274.850699,43.7348796 301.053121,41.1475188 334.608097,35.9727972 C339.6545,41.7928866 343.158752,45.9751969 345.120854,48.5197282 C347.242725,51.2714551 349.438794,54.3648441 350.850417,56.3250048 C354.220039,61.0040164 358.518662,67.706915 363.746286,76.4337006 C316.596658,84.3150116 280.681506,88.2556672 256.000831,88.2556672 C231.320155,88.2556672 195.324263,84.3150116 148.013153,76.4337006 C152.967117,67.0892002 157.406608,59.8709966 161.331625,54.7790897 C165.256643,49.6871828 170.836059,43.4184187 178.069872,35.9727972 Z" id="路径-2" stroke="#979797" fill="#F87F43"></path>
    </g>
</svg>
